# xmcd CD database file
#
# Track frame offsets:
#	150
#	45339
#	68969
#	103050
#	151499
#	189408
#	224658
#	257175
#	292990
#	324226
#
# Disc length: 4683 seconds
#
# Revision: 0
# Processed by: cddbd v1.5PL3 Copyright (c) Steve Scherf et al.
# Submitted via: CDex 1.51
#
DISCID=9112490a
DTITLE=David Spring - Spring Thing
DYEAR=2003
DGENRE=Jazz
TTITLE0=Diggin on Danny G
TTITLE1=Everyone's Watching You
TTITLE2=Again with the Blues!?
TTITLE3=Gratitude, Honor and Truth
TTITLE4=Wahbnimkee Qua (Charlotte's Dream)
TTITLE5=The Day's of Wine and Roses
TTITLE6=Lament
TTITLE7=One for Lazaro
TTITLE8=How Deep is the Ocean
TTITLE9=Tanga
EXTD=YEAR: 2003
EXTT0=
EXTT1=
EXTT2=
EXTT3=
EXTT4=
EXTT5=
EXTT6=
EXTT7=
EXTT8=
EXTT9=
PLAYORDER=
